ffmpeg started on 2025-05-12 at 20:15:42
Report written to "D:\Convert\FFMetrics\reports\psnr_report-6.txt"
Log level: 32
Command line:
ffmpeg -hide_banner -nostdin -i "G:\\\xc0\xed\xe8\xec\xe5\\\xce\xed\xe3\xee\xe8\xed\xe3\xe8\\!_35_\xcb\xe5\xf2\xee_2024\\DreamCast-1\\\xcf\xee\xeb\xf3\xed\xee\xf7\xed\xfb\xe9 \xf3\xe4\xe0\xf0\\[DC] Mayonaka Punch - 06_Telegram_HEVC.mkv" -i "G:\\\xc0\xed\xe8\xec\xe5\\\xce\xed\xe3\xee\xe8\xed\xe3\xe8\\!_35_\xcb\xe5\xf2\xee_2024\\DreamCast-1\\\xcf\xee\xeb\xf3\xed\xee\xf7\xed\xfb\xe9 \xf3\xe4\xe0\xf0\\[DC] Mayonaka Punch - 06_Telegram.mp4" -lavfi "[0:v]settb=AVTB,setpts=PTS-STARTPTS,format=pix_fmts=yuv420p10,fps=24000/1001,scale=1920:1080:flags=bicubic[main];[1:v]settb=AVTB,setpts=PTS-STARTPTS,format=pix_fmts=yuv420p,fps=24000/1001,scale=1920:1080:flags=bicubic[ref];[main][ref]psnr=eof_action=endall:stats_file='D\\:/Convert/FFMetrics/logs/psnr_logfile-6.txt'" -f null -
Input #0, matroska,webm, from 'G:\Аниме\Онгоинги\!_35_Лето_2024\DreamCast-1\Полуночный удар\[DC] Mayonaka Punch - 06_Telegram_HEVC.mkv':
  Metadata:
    COMPATIBLE_BRANDS: isomiso2avc1mp41
    MAJOR_BRAND     : isom
    MINOR_VERSION   : 512
    ENCODER         : Lavf61.7.100
  Duration: 00:23:47.67, start: -0.021000, bitrate: 1146 kb/s
  Stream #0:0: Video: hevc (Main 10), yuv420p10le(tv, bt709, progressive), 1920x1080 [SAR 1:1 DAR 16:9], 23.98 fps, 23.98 tbr, 1k tbn (default)
      Metadata:
        HANDLER_NAME    : VideoHandler
        VENDOR_ID       : [0][0][0][0]
        ENCODER         : Lavc61.19.100 libx265
        BPS             : 950624
        DURATION        : 00:23:46.508708333
        NUMBER_OF_FRAMES: 34202
        NUMBER_OF_BYTES : 169509233
        _STATISTICS_WRITING_APP: mkvpropedit v66.0.0 ('Josie') 64-bit
        _STATISTICS_WRITING_DATE_UTC: 2025-05-10 11:01:00
        _STATISTICS_TAGS: BPS DURATION NUMBER_OF_FRAMES NUMBER_OF_BYTES
  Stream #0:1: Audio: aac (LC), 48000 Hz, stereo, fltp (default)
      Metadata:
        HANDLER_NAME    : SoundHandler
        VENDOR_ID       : [0][0][0][0]
        ENCODER         : Lavc61.19.100 aac
        BPS             : 193046
        DURATION        : 00:23:47.669000000
        NUMBER_OF_FRAMES: 66923
        NUMBER_OF_BYTES : 34450788
        _STATISTICS_WRITING_APP: mkvpropedit v66.0.0 ('Josie') 64-bit
        _STATISTICS_WRITING_DATE_UTC: 2025-05-10 11:01:00
        _STATISTICS_TAGS: BPS DURATION NUMBER_OF_FRAMES NUMBER_OF_BYTES
Input #1, mov,mp4,m4a,3gp,3g2,mj2, from 'G:\Аниме\Онгоинги\!_35_Лето_2024\DreamCast-1\Полуночный удар\[DC] Mayonaka Punch - 06_Telegram.mp4':
  Metadata:
    major_brand     : isom
    minor_version   : 512
    compatible_brands: isomiso2avc1mp41
    encoder         : Lavf61.1.100
  Duration: 00:23:47.63, start: 0.000000, bitrate: 3727 kb/s
  Stream #1:0[0x1](und): Video: h264 (High) (avc1 / 0x31637661), yuv420p(tv, bt709, progressive), 1920x1080 [SAR 1:1 DAR 16:9], 3582 kb/s, 23.98 fps, 23.98 tbr, 24k tbn (default)
      Metadata:
        handler_name    : VideoHandler
        vendor_id       : [0][0][0][0]
        encoder         : Lavc61.3.100 h264_qsv
  Stream #1:1[0x2](und): Audio: aac (HE-AACv2) (mp4a / 0x6134706D), 48000 Hz, stereo, fltp, 144 kb/s (default)
      Metadata:
        handler_name    : SoundHandler
        vendor_id       : [0][0][0][0]
Stream mapping:
  Stream #0:0 (hevc) -> settb:default
  Stream #1:0 (h264) -> settb:default
  psnr:default -> Stream #0:0 (wrapped_avframe)
  Stream #0:1 -> #0:1 (aac (native) -> pcm_s16le (native))
Output #0, null, to 'pipe:':
  Metadata:
    COMPATIBLE_BRANDS: isomiso2avc1mp41
    MAJOR_BRAND     : isom
    MINOR_VERSION   : 512
    encoder         : Lavf61.7.100
  Stream #0:0: Video: wrapped_avframe, yuv420p10le(tv, bt709, progressive), 1920x1080 [SAR 1:1 DAR 16:9], q=2-31, 200 kb/s, 23.98 fps, 23.98 tbn
      Metadata:
        encoder         : Lavc61.19.100 wrapped_avframe
  Stream #0:1: Audio: pcm_s16le, 48000 Hz, stereo, s16, 1536 kb/s (default)
      Metadata:
        HANDLER_NAME    : SoundHandler
        VENDOR_ID       : [0][0][0][0]
        _STATISTICS_TAGS: BPS DURATION NUMBER_OF_FRAMES NUMBER_OF_BYTES
        BPS             : 193046
        DURATION        : 00:23:47.669000000
        NUMBER_OF_FRAMES: 66923
        NUMBER_OF_BYTES : 34450788
        _STATISTICS_WRITING_APP: mkvpropedit v66.0.0 ('Josie') 64-bit
        _STATISTICS_WRITING_DATE_UTC: 2025-05-10 11:01:00
        encoder         : Lavc61.19.100 pcm_s16le
frame=  171 fps=0.0 q=-0.0 size=N/A time=00:00:07.13 bitrate=N/A speed=13.5x    frame=  404 fps=391 q=-0.0 size=N/A time=00:00:16.85 bitrate=N/A speed=16.3x    frame=  632 fps=409 q=-0.0 size=N/A time=00:00:26.35 bitrate=N/A speed=  17x    frame=  879 fps=426 q=-0.0 size=N/A time=00:00:36.66 bitrate=N/A speed=17.7x    frame= 1135 fps=439 q=-0.0 size=N/A time=00:00:47.33 bitrate=N/A speed=18.3x    frame= 1390 fps=448 q=-0.0 size=N/A time=00:00:57.97 bitrate=N/A speed=18.7x    frame= 1629 fps=451 q=-0.0 size=N/A time=00:01:07.94 bitrate=N/A speed=18.8x    frame= 1835 fps=444 q=-0.0 size=N/A time=00:01:16.53 bitrate=N/A speed=18.5x    frame= 1999 fps=430 q=-0.0 size=N/A time=00:01:23.37 bitrate=N/A speed=17.9x    frame= 2153 fps=417 q=-0.0 size=N/A time=00:01:29.79 bitrate=N/A speed=17.4x    frame= 2325 fps=410 q=-0.0 size=N/A time=00:01:36.97 bitrate=N/A speed=17.1x    frame= 2508 fps=405 q=-0.0 size=N/A time=00:01:44.60 bitrate=N/A speed=16.9x    frame= 2677 fps=399 q=-0.0 size=N/A time=00:01:51.65 bitrate=N/A speed=16.7x    frame= 2848 fps=394 q=-0.0 size=N/A time=00:01:58.78 bitrate=N/A speed=16.4x    frame= 3029 fps=392 q=-0.0 size=N/A time=00:02:06.33 bitrate=N/A speed=16.3x    frame= 3214 fps=389 q=-0.0 size=N/A time=00:02:14.05 bitrate=N/A speed=16.2x    frame= 3397 fps=387 q=-0.0 size=N/A time=00:02:21.68 bitrate=N/A speed=16.2x    frame= 3589 fps=387 q=-0.0 size=N/A time=00:02:29.69 bitrate=N/A speed=16.1x    frame= 3763 fps=384 q=-0.0 size=N/A time=00:02:36.94 bitrate=N/A speed=  16x    frame= 3932 fps=381 q=-0.0 size=N/A time=00:02:43.99 bitrate=N/A speed=15.9x    frame= 4151 fps=383 q=-0.0 size=N/A time=00:02:53.13 bitrate=N/A speed=  16x    frame= 4377 fps=386 q=-0.0 size=N/A time=00:03:02.55 bitrate=N/A speed=16.1x    frame= 4576 fps=386 q=-0.0 size=N/A time=00:03:10.85 bitrate=N/A speed=16.1x    frame= 4811 fps=388 q=-0.0 size=N/A time=00:03:20.65 bitrate=N/A speed=16.2x    frame= 5063 fps=393 q=-0.0 size=N/A time=00:03:31.16 bitrate=N/A speed=16.4x    frame= 5282 fps=394 q=-0.0 size=N/A time=00:03:40.30 bitrate=N/A speed=16.4x    frame= 5497 fps=395 q=-0.0 size=N/A time=00:03:49.27 bitrate=N/A speed=16.5x    frame= 5723 fps=396 q=-0.0 size=N/A time=00:03:58.69 bitrate=N/A speed=16.5x    frame= 5964 fps=399 q=-0.0 size=N/A time=00:04:08.74 bitrate=N/A speed=16.6x    frame= 6169 fps=399 q=-0.0 size=N/A time=00:04:17.29 bitrate=N/A speed=16.6x    frame= 6391 fps=400 q=-0.0 size=N/A time=00:04:26.55 bitrate=N/A speed=16.7x    frame= 6569 fps=398 q=-0.0 size=N/A time=00:04:33.98 bitrate=N/A speed=16.6x    frame= 6785 fps=399 q=-0.0 size=N/A time=00:04:42.99 bitrate=N/A speed=16.6x    frame= 7005 fps=400 q=-0.0 size=N/A time=00:04:52.16 bitrate=N/A speed=16.7x    frame= 7199 fps=399 q=-0.0 size=N/A time=00:05:00.25 bitrate=N/A speed=16.6x    frame= 7433 fps=400 q=-0.0 size=N/A time=00:05:10.01 bitrate=N/A speed=16.7x    frame= 7683 fps=403 q=-0.0 size=N/A time=00:05:20.44 bitrate=N/A speed=16.8x    frame= 7921 fps=404 q=-0.0 size=N/A time=00:05:30.37 bitrate=N/A speed=16.9x    frame= 8165 fps=406 q=-0.0 size=N/A time=00:05:40.54 bitrate=N/A speed=16.9x    frame= 8407 fps=407 q=-0.0 size=N/A time=00:05:50.64 bitrate=N/A speed=  17x    frame= 8641 fps=409 q=-0.0 size=N/A time=00:06:00.40 bitrate=N/A speed=17.1x    frame= 8863 fps=409 q=-0.0 size=N/A time=00:06:09.66 bitrate=N/A speed=17.1x    frame= 9094 fps=410 q=-0.0 size=N/A time=00:06:19.29 bitrate=N/A speed=17.1x    frame= 9337 fps=411 q=-0.0 size=N/A time=00:06:29.43 bitrate=N/A speed=17.2x    frame= 9587 fps=413 q=-0.0 size=N/A time=00:06:39.85 bitrate=N/A speed=17.2x    frame= 9811 fps=414 q=-0.0 size=N/A time=00:06:49.20 bitrate=N/A speed=17.2x    frame=10062 fps=415 q=-0.0 size=N/A time=00:06:59.66 bitrate=N/A speed=17.3x    frame=10310 fps=417 q=-0.0 size=N/A time=00:07:10.01 bitrate=N/A speed=17.4x    frame=10563 fps=418 q=-0.0 size=N/A time=00:07:20.56 bitrate=N/A speed=17.4x    frame=10810 fps=419 q=-0.0 size=N/A time=00:07:30.86 bitrate=N/A speed=17.5x    frame=11025 fps=419 q=-0.0 size=N/A time=00:07:39.83 bitrate=N/A speed=17.5x    frame=11266 fps=420 q=-0.0 size=N/A time=00:07:49.88 bitrate=N/A speed=17.5x    frame=11509 fps=421 q=-0.0 size=N/A time=00:08:00.02 bitrate=N/A speed=17.6x    frame=11750 fps=422 q=-0.0 size=N/A time=00:08:10.07 bitrate=N/A speed=17.6x    frame=11992 fps=423 q=-0.0 size=N/A time=00:08:20.16 bitrate=N/A speed=17.6x    frame=12256 fps=424 q=-0.0 size=N/A time=00:08:31.17 bitrate=N/A speed=17.7x    frame=12500 fps=425 q=-0.0 size=N/A time=00:08:41.35 bitrate=N/A speed=17.7x    frame=12736 fps=426 q=-0.0 size=N/A time=00:08:51.19 bitrate=N/A speed=17.8x    frame=12984 fps=427 q=-0.0 size=N/A time=00:09:01.54 bitrate=N/A speed=17.8x    frame=13237 fps=428 q=-0.0 size=N/A time=00:09:12.09 bitrate=N/A speed=17.8x    frame=13487 fps=429 q=-0.0 size=N/A time=00:09:22.52 bitrate=N/A speed=17.9x    frame=13710 fps=429 q=-0.0 size=N/A time=00:09:31.82 bitrate=N/A speed=17.9x    frame=13940 fps=429 q=-0.0 size=N/A time=00:09:41.41 bitrate=N/A speed=17.9x    frame=14140 fps=428 q=-0.0 size=N/A time=00:09:49.75 bitrate=N/A speed=17.9x    frame=14393 fps=429 q=-0.0 size=N/A time=00:10:00.30 bitrate=N/A speed=17.9x    frame=14629 fps=430 q=-0.0 size=N/A time=00:10:10.15 bitrate=N/A speed=17.9x    frame=14854 fps=430 q=-0.0 size=N/A time=00:10:19.53 bitrate=N/A speed=17.9x    frame=15084 fps=430 q=-0.0 size=N/A time=00:10:29.12 bitrate=N/A speed=17.9x    frame=15324 fps=431 q=-0.0 size=N/A time=00:10:39.13 bitrate=N/A speed=  18x    frame=15533 fps=430 q=-0.0 size=N/A time=00:10:47.85 bitrate=N/A speed=17.9x    frame=15764 fps=430 q=-0.0 size=N/A time=00:10:57.49 bitrate=N/A speed=  18x    frame=16014 fps=431 q=-0.0 size=N/A time=00:11:07.91 bitrate=N/A speed=  18x    frame=16224 fps=431 q=-0.0 size=N/A time=00:11:16.67 bitrate=N/A speed=  18x    frame=16414 fps=430 q=-0.0 size=N/A time=00:11:24.60 bitrate=N/A speed=17.9x    frame=16615 fps=430 q=-0.0 size=N/A time=00:11:32.98 bitrate=N/A speed=17.9x    frame=16854 fps=430 q=-0.0 size=N/A time=00:11:42.95 bitrate=N/A speed=17.9x    frame=17087 fps=430 q=-0.0 size=N/A time=00:11:52.67 bitrate=N/A speed=  18x    frame=17292 fps=430 q=-0.0 size=N/A time=00:12:01.22 bitrate=N/A speed=17.9x    frame=17525 fps=430 q=-0.0 size=N/A time=00:12:10.93 bitrate=N/A speed=17.9x    frame=17749 fps=430 q=-0.0 size=N/A time=00:12:20.28 bitrate=N/A speed=17.9x    frame=17988 fps=431 q=-0.0 size=N/A time=00:12:30.24 bitrate=N/A speed=  18x    frame=18233 fps=431 q=-0.0 size=N/A time=00:12:40.46 bitrate=N/A speed=  18x    frame=18458 fps=431 q=-0.0 size=N/A time=00:12:49.85 bitrate=N/A speed=  18x    frame=18714 fps=432 q=-0.0 size=N/A time=00:13:00.52 bitrate=N/A speed=  18x    frame=18950 fps=432 q=-0.0 size=N/A time=00:13:10.37 bitrate=N/A speed=  18x    frame=19157 fps=432 q=-0.0 size=N/A time=00:13:19.00 bitrate=N/A speed=  18x    frame=19405 fps=432 q=-0.0 size=N/A time=00:13:29.35 bitrate=N/A speed=  18x    frame=19646 fps=433 q=-0.0 size=N/A time=00:13:39.40 bitrate=N/A speed=18.1x    frame=19893 fps=433 q=-0.0 size=N/A time=00:13:49.70 bitrate=N/A speed=18.1x    frame=20132 fps=434 q=-0.0 size=N/A time=00:13:59.67 bitrate=N/A speed=18.1x    frame=20372 fps=434 q=-0.0 size=N/A time=00:14:09.68 bitrate=N/A speed=18.1x    frame=20614 fps=435 q=-0.0 size=N/A time=00:14:19.77 bitrate=N/A speed=18.1x    frame=20870 fps=435 q=-0.0 size=N/A time=00:14:30.45 bitrate=N/A speed=18.2x    frame=21097 fps=435 q=-0.0 size=N/A time=00:14:39.92 bitrate=N/A speed=18.2x    frame=21327 fps=435 q=-0.0 size=N/A time=00:14:49.51 bitrate=N/A speed=18.2x    frame=21516 fps=435 q=-0.0 size=N/A time=00:14:57.39 bitrate=N/A speed=18.1x    frame=21675 fps=433 q=-0.0 size=N/A time=00:15:04.02 bitrate=N/A speed=18.1x    frame=21816 fps=432 q=-0.0 size=N/A time=00:15:09.90 bitrate=N/A speed=  18x    frame=22005 fps=431 q=-0.0 size=N/A time=00:15:17.79 bitrate=N/A speed=  18x    frame=22216 fps=431 q=-0.0 size=N/A time=00:15:26.59 bitrate=N/A speed=  18x    frame=22461 fps=431 q=-0.0 size=N/A time=00:15:36.81 bitrate=N/A speed=  18x    frame=22690 fps=431 q=-0.0 size=N/A time=00:15:46.36 bitrate=N/A speed=  18x    frame=22952 fps=432 q=-0.0 size=N/A time=00:15:57.28 bitrate=N/A speed=  18x    frame=23207 fps=433 q=-0.0 size=N/A time=00:16:07.92 bitrate=N/A speed=  18x    frame=23412 fps=432 q=-0.0 size=N/A time=00:16:16.47 bitrate=N/A speed=  18x    frame=23652 fps=433 q=-0.0 size=N/A time=00:16:26.48 bitrate=N/A speed=  18x    frame=23889 fps=433 q=-0.0 size=N/A time=00:16:36.37 bitrate=N/A speed=18.1x    frame=24119 fps=433 q=-0.0 size=N/A time=00:16:45.96 bitrate=N/A speed=18.1x    frame=24335 fps=433 q=-0.0 size=N/A time=00:16:54.97 bitrate=N/A speed=18.1x    frame=24538 fps=432 q=-0.0 size=N/A time=00:17:03.43 bitrate=N/A speed=  18x    frame=24730 fps=432 q=-0.0 size=N/A time=00:17:11.44 bitrate=N/A speed=  18x    frame=24906 fps=431 q=-0.0 size=N/A time=00:17:18.78 bitrate=N/A speed=  18x    frame=25131 fps=431 q=-0.0 size=N/A time=00:17:28.17 bitrate=N/A speed=  18x    frame=25388 fps=432 q=-0.0 size=N/A time=00:17:38.89 bitrate=N/A speed=  18x    frame=25648 fps=432 q=-0.0 size=N/A time=00:17:49.73 bitrate=N/A speed=  18x    frame=25838 fps=432 q=-0.0 size=N/A time=00:17:57.65 bitrate=N/A speed=  18x    frame=26067 fps=432 q=-0.0 size=N/A time=00:18:07.21 bitrate=N/A speed=  18x    frame=26294 fps=432 q=-0.0 size=N/A time=00:18:16.67 bitrate=N/A speed=  18x    frame=26506 fps=432 q=-0.0 size=N/A time=00:18:25.52 bitrate=N/A speed=  18x    frame=26700 fps=431 q=-0.0 size=N/A time=00:18:33.61 bitrate=N/A speed=  18x    frame=26931 fps=431 q=-0.0 size=N/A time=00:18:43.24 bitrate=N/A speed=  18x    frame=27176 fps=432 q=-0.0 size=N/A time=00:18:53.46 bitrate=N/A speed=  18x    frame=27413 fps=432 q=-0.0 size=N/A time=00:19:03.35 bitrate=N/A speed=  18x    frame=27652 fps=432 q=-0.0 size=N/A time=00:19:13.31 bitrate=N/A speed=  18x    frame=27888 fps=433 q=-0.0 size=N/A time=00:19:23.16 bitrate=N/A speed=  18x    frame=28139 fps=433 q=-0.0 size=N/A time=00:19:33.63 bitrate=N/A speed=18.1x    frame=28383 fps=433 q=-0.0 size=N/A time=00:19:43.80 bitrate=N/A speed=18.1x    frame=28619 fps=433 q=-0.0 size=N/A time=00:19:53.65 bitrate=N/A speed=18.1x    frame=28865 fps=434 q=-0.0 size=N/A time=00:20:03.91 bitrate=N/A speed=18.1x    frame=29119 fps=434 q=-0.0 size=N/A time=00:20:14.50 bitrate=N/A speed=18.1x    frame=29373 fps=435 q=-0.0 size=N/A time=00:20:25.09 bitrate=N/A speed=18.1x    frame=29634 fps=435 q=-0.0 size=N/A time=00:20:35.98 bitrate=N/A speed=18.1x    frame=29879 fps=436 q=-0.0 size=N/A time=00:20:46.20 bitrate=N/A speed=18.2x    frame=30139 fps=436 q=-0.0 size=N/A time=00:20:57.04 bitrate=N/A speed=18.2x    frame=30405 fps=437 q=-0.0 size=N/A time=00:21:08.14 bitrate=N/A speed=18.2x    frame=30659 fps=437 q=-0.0 size=N/A time=00:21:18.73 bitrate=N/A speed=18.2x    frame=30887 fps=437 q=-0.0 size=N/A time=00:21:28.24 bitrate=N/A speed=18.2x    frame=31132 fps=437 q=-0.0 size=N/A time=00:21:38.46 bitrate=N/A speed=18.2x    frame=31344 fps=437 q=-0.0 size=N/A time=00:21:47.30 bitrate=N/A speed=18.2x    frame=31587 fps=437 q=-0.0 size=N/A time=00:21:57.44 bitrate=N/A speed=18.2x    frame=31809 fps=437 q=-0.0 size=N/A time=00:22:06.70 bitrate=N/A speed=18.2x    frame=32033 fps=437 q=-0.0 size=N/A time=00:22:16.04 bitrate=N/A speed=18.2x    frame=32275 fps=437 q=-0.0 size=N/A time=00:22:26.13 bitrate=N/A speed=18.2x    frame=32480 fps=437 q=-0.0 size=N/A time=00:22:34.68 bitrate=N/A speed=18.2x    frame=32711 fps=437 q=-0.0 size=N/A time=00:22:44.32 bitrate=N/A speed=18.2x    frame=32905 fps=437 q=-0.0 size=N/A time=00:22:52.41 bitrate=N/A speed=18.2x    frame=33095 fps=436 q=-0.0 size=N/A time=00:23:00.33 bitrate=N/A speed=18.2x    frame=33291 fps=436 q=-0.0 size=N/A time=00:23:08.51 bitrate=N/A speed=18.2x    frame=33522 fps=436 q=-0.0 size=N/A time=00:23:18.14 bitrate=N/A speed=18.2x    frame=33746 fps=436 q=-0.0 size=N/A time=00:23:27.48 bitrate=N/A speed=18.2x    frame=33987 fps=436 q=-0.0 size=N/A time=00:23:37.54 bitrate=N/A speed=18.2x    frame=34191 fps=436 q=-0.0 size=N/A time=00:23:46.04 bitrate=N/A speed=18.2x    [Parsed_psnr_10 @ 000002096b799840] PSNR y:48.181774 u:49.987241 v:49.683846 average:48.665590 min:37.059054 max:inf
[out#0/null @ 000002096b774340] video:14696KiB audio:267692KiB subtitle:0KiB other streams:0KiB global headers:0KiB muxing overhead: unknown
frame=34202 fps=436 q=-0.0 Lsize=N/A time=00:23:46.50 bitrate=N/A speed=18.2x    
